<svg class="mr-1 mb-1" width="17" height="11" viewBox="0 0 17 11" fill="none" xmlns="http://www.w3.org/2000/svg">
                    <path class="fill-current" opacity="0.4" d="M12.0001 4.58117L15.2789 4.2912C16.0147 4.2912 16.6113 4.8936 16.6113 5.63659C16.6113 6.37958 16.0147 6.98198 15.2789 6.98198L12.0001 6.69201C11.4229 6.69201 10.9549 6.21946 10.9549 5.63659C10.9549 5.05274 11.4229 4.58117 12.0001 4.58117"></path>
                    <path class="fill-current" d="M0.990877 4.63448C1.04212 4.58273 1.23357 4.36403 1.41342 4.18243C2.46252 3.045 5.20179 1.18509 6.63476 0.615882C6.85231 0.525083 7.40249 0.331769 7.6974 0.3181C7.97877 0.3181 8.24757 0.383514 8.5038 0.512391C8.82385 0.693012 9.07912 0.978102 9.22029 1.31396C9.31021 1.54633 9.45138 2.24441 9.45138 2.2571C9.59158 3.01962 9.66797 4.25956 9.66797 5.63034C9.66797 6.93472 9.59158 8.1239 9.47652 8.89911C9.46395 8.91277 9.32278 9.77878 9.16904 10.0756C8.88767 10.6184 8.33749 10.9543 7.74864 10.9543H7.6974C7.31353 10.9416 6.50712 10.6048 6.50712 10.593C5.15054 10.0238 2.47606 8.25375 1.40085 7.07726C1.40085 7.07726 1.09724 6.7746 0.965737 6.58617C0.760751 6.31475 0.658258 5.97889 0.658258 5.64303C0.658258 5.26812 0.773321 4.91957 0.990877 4.63448"></path>
                </svg>