<svg class="ml-1 text-blue-700 dark:text-blue-450 mb-1" width="21" height="19" viewBox="0 0 21 19" fill="none" xmlns="http://www.w3.org/2000/svg">
            <path d="M8.60482 10.2695C9.04115 10.2695 9.39487 10.6232 9.39487 11.0596C9.39487 11.4959 9.04115 11.8496 8.60482 11.8496H5.4446C5.00827 11.8496 4.65454 11.4959 4.65454 11.0596C4.65454 10.6232 5.00827 10.2695 5.4446 10.2695H8.60482Z" fill="#f4cb27"></path>
            <path d="M11.765 13.4298C12.2014 13.4298 12.5551 13.7835 12.5551 14.2198C12.5551 14.6561 12.2014 15.0099 11.765 15.0099H5.4446C5.00827 15.0099 4.65454 14.6561 4.65454 14.2198C4.65454 13.7835 5.00827 13.4298 5.4446 13.4298H11.765Z" fill="#f4cb27"></path>
            <path fill-rule="evenodd" clip-rule="evenodd" d="M19.0121 1.50606C18.4048 0.913508 17.436 0.574801 16.4599 0.36586C15.4482 0.149286 14.2779 0.0424385 13.1308 0.0105373C11.9803 -0.0214571 10.8299 0.0213431 9.84992 0.11266C8.89124 0.201994 8.03011 0.343374 7.49387 0.533636C6.40162 0.921173 5.81884 1.59387 5.55934 2.35346C5.42867 2.73597 5.38876 3.13119 5.37879 3.45795C1.01507 4.01885 0.211665 5.93937 0.943081 11.112C1.85709 17.5759 3.73169 18.9613 11.564 18.9613C16.9885 18.9613 19.3673 18.2968 20.0137 15.7409L20.0201 15.7425C20.1388 15.2678 20.2511 14.2663 20.3317 13.0693C20.4141 11.8468 20.4677 10.3516 20.4531 8.8507C20.4386 7.35415 20.3562 5.8296 20.1607 4.55708C20.0631 3.92147 19.9341 3.32778 19.7623 2.8229C19.596 2.33428 19.3634 1.84882 19.0121 1.50606ZM18.7878 6.6436C18.7436 5.98385 18.6802 5.35922 18.594 4.7979C18.5042 4.21381 18.3928 3.71919 18.2617 3.33386C18.125 2.93227 17.9919 2.7256 17.9052 2.64098C17.6365 2.3788 17.0488 2.11333 16.1282 1.91624C15.2431 1.72678 14.1765 1.62572 13.0867 1.59542C12.0003 1.5652 10.9137 1.60589 9.99697 1.69132C9.05894 1.77873 8.3636 1.90734 8.02383 2.0279C7.36405 2.26199 7.15435 2.58808 7.05936 2.86612C7.00869 3.01444 6.98401 3.16256 6.9725 3.3185C7.68892 3.27958 8.47769 3.26263 9.34418 3.26263C14.8805 3.26263 17.4401 3.95485 18.7878 6.6436ZM18.3799 11.112C17.9202 7.86056 17.2768 6.61386 16.4047 5.96933C15.9426 5.62777 15.2485 5.32743 14.109 5.12372C12.9654 4.91926 11.4946 4.8325 9.56616 4.8325C7.6377 4.8325 6.19148 4.91926 5.10565 5.12372C4.02377 5.32743 3.41466 5.62777 3.04909 5.96933C2.35925 6.61386 2.06849 7.86056 2.52825 11.112C2.98801 14.3634 3.63133 15.6101 4.50345 16.2546C4.96562 16.5962 5.65966 16.8965 6.79915 17.1002C7.9428 17.3047 9.41356 17.3915 11.342 17.3915C13.2705 17.3915 14.7167 17.3047 15.8025 17.1002C16.8844 16.8965 17.4935 16.5962 17.8591 16.2546C18.5489 15.6101 18.8397 14.3634 18.3799 11.112Z" fill="#f4cb27" fill-opacity="0.4"></path>
        </svg>