<svg xmlns="http://www.w3.org/2000/svg" width="23.612" height="23.61" viewBox="0 0 23.612 23.61">
  <path id="setting" d="M24.642,18.56l-.774-.474h0Zm-1.156,1.887.774.474h0ZM3.468,9.55l-.774-.474h0ZM4.624,7.663l.774.474Zm3.158-.8.434-.8h0ZM4.314,12.527l-.434.8h0Zm16.014,8.718-.434.8h0ZM23.8,15.583l-.434.8h0ZM4.624,20.447l-.774.474h0ZM3.468,18.56l.774-.474h0Zm20.018-10.9.774-.474h0ZM24.642,9.55l-.774.474h0ZM23.8,12.527l.434.8ZM20.329,6.865l.434.8h0ZM4.314,15.583l.434.8h0Zm3.467,5.662-.434-.8h0ZM20.206,6.932l-.434-.8Zm-12.3,0-.434.8h0Zm12.3,14.246.434-.8h0Zm-12.3,0,.434.8h0Zm5-17.112h2.311V2.25H12.9Zm2.311,19.978H12.9V25.86h2.311Zm-2.311,0a1.342,1.342,0,0,1-1.4-1.271H9.68A3.156,3.156,0,0,0,12.9,25.86Zm3.715-1.271a1.342,1.342,0,0,1-1.4,1.271V25.86a3.156,3.156,0,0,0,3.22-3.087Zm-1.4-18.706a1.342,1.342,0,0,1,1.4,1.271H18.43a3.156,3.156,0,0,0-3.22-3.087ZM12.9,2.25A3.156,3.156,0,0,0,9.68,5.337H11.5a1.342,1.342,0,0,1,1.4-1.271ZM23.868,18.085l-1.156,1.887,1.549.948,1.156-1.887ZM4.243,10.024,5.4,8.137,3.85,7.189,2.694,9.076ZM5.4,8.137a1.482,1.482,0,0,1,1.949-.474l.868-1.6A3.3,3.3,0,0,0,3.85,7.189Zm-.65,3.593a1.205,1.205,0,0,1-.506-1.705L2.694,9.076A3.021,3.021,0,0,0,3.88,13.325Zm17.963,8.243a1.482,1.482,0,0,1-1.949.474l-.868,1.6a3.3,3.3,0,0,0,4.366-1.121Zm2.7-.939a3.021,3.021,0,0,0-1.186-4.249l-.868,1.6a1.205,1.205,0,0,1,.506,1.705ZM5.4,19.973,4.243,18.085l-1.549.948L3.85,20.921ZM22.712,8.137l1.156,1.887,1.549-.948L24.261,7.189Zm1.156,1.887a1.205,1.205,0,0,1-.506,1.705l.868,1.6a3.021,3.021,0,0,0,1.186-4.249Zm-3.1-2.362a1.482,1.482,0,0,1,1.949.474l1.549-.948a3.3,3.3,0,0,0-4.366-1.121ZM4.243,18.085a1.205,1.205,0,0,1,.506-1.705l-.868-1.6a3.021,3.021,0,0,0-1.186,4.249ZM3.85,20.921a3.3,3.3,0,0,0,4.366,1.121l-.868-1.6A1.482,1.482,0,0,1,5.4,19.973ZM20.64,7.73l.123-.067-.868-1.6-.123.067ZM7.347,7.663l.123.067.868-1.6-.123-.067ZM20.763,20.447l-.123-.067-.868,1.6.123.067ZM7.47,20.38l-.123.067.868,1.6.123-.067ZM3.88,13.325a.831.831,0,0,1,0,1.46l.868,1.6a2.647,2.647,0,0,0,0-4.651Zm4.458,8.651a.907.907,0,0,1,1.341.8H11.5A2.724,2.724,0,0,0,7.47,20.38Zm10.092.8a.907.907,0,0,1,1.341-.8l.868-1.6a2.724,2.724,0,0,0-4.026,2.392Zm5.8-7.987a.831.831,0,0,1,0-1.46l-.868-1.6a2.647,2.647,0,0,0,0,4.65ZM7.47,7.73A2.724,2.724,0,0,0,11.5,5.337H9.68a.907.907,0,0,1-1.341.8Zm12.3-1.6a.907.907,0,0,1-1.341-.8H16.614A2.724,2.724,0,0,0,20.64,7.73Zm-2.992,7.921a2.724,2.724,0,0,1-2.724,2.724V18.6a4.54,4.54,0,0,0,4.54-4.54Zm-2.724,2.724a2.724,2.724,0,0,1-2.724-2.724H9.515a4.54,4.54,0,0,0,4.54,4.54Zm-2.724-2.724a2.724,2.724,0,0,1,2.724-2.724V9.515a4.54,4.54,0,0,0-4.54,4.54Zm2.724-2.724a2.724,2.724,0,0,1,2.724,2.724H18.6a4.54,4.54,0,0,0-4.54-4.54Z" transform="translate(-2.249 -2.25)" fill="#f5efed"/>
</svg>
