<?xml version="1.0" encoding="iso-8859-1"?>
<!-- Generator: Adobe Illustrator 21.1.0, SVG Export Plug-In . SVG Version: 6.00 Build 0)  -->
<svg version="1.1" id="Layer_1" xmlns="http://www.w3.org/2000/svg" xmlns:xlink="http://www.w3.org/1999/xlink" x="0px" y="0px"
	 viewBox="0 0 100.354 100.352" style="enable-background:new 0 0 100.354 100.352;" xml:space="preserve">
<g>
	<path d="M55.015,46.881c0.004-0.109-0.005-0.218-0.025-0.326c-0.006-0.031-0.011-0.062-0.019-0.093
		c-0.031-0.123-0.072-0.245-0.136-0.361c-0.065-0.117-0.146-0.218-0.235-0.31c-0.021-0.022-0.042-0.041-0.064-0.062
		c-0.085-0.078-0.176-0.147-0.274-0.204c-0.012-0.007-0.022-0.015-0.034-0.022c-0.111-0.06-0.229-0.102-0.352-0.132
		c-0.029-0.007-0.057-0.011-0.087-0.016c-0.106-0.019-0.213-0.028-0.322-0.024c-0.017,0.001-0.033-0.005-0.049-0.004l-26.735,1.831
		c-0.612,0.042-1.136,0.452-1.325,1.035c-0.188,0.583-0.003,1.223,0.468,1.615l8.873,7.376l1.487,11.442
		c0.079,0.608,0.52,1.106,1.114,1.26c0.124,0.031,0.25,0.047,0.374,0.047c0.47,0,0.923-0.222,1.209-0.613l15.847-21.609
		c0.01-0.014,0.014-0.03,0.023-0.044c0.062-0.09,0.112-0.186,0.152-0.286c0.011-0.028,0.023-0.054,0.033-0.083
		c0.039-0.118,0.066-0.24,0.076-0.364C55.017,46.916,55.015,46.899,55.015,46.881z M46.849,48.785L36.284,54.6l-5.659-4.704
		L46.849,48.785z M38.68,64.527l-0.949-7.298l10.566-5.816L38.68,64.527z"/>
	<path d="M94.764,51.659c0.028-0.279-0.02-0.569-0.159-0.837l-2.782-5.373c-0.382-0.737-1.29-1.024-2.021-0.642c0,0,0,0,0,0
		c0,0,0,0-0.001,0c-0.389,0.203-0.833,0.239-1.254,0.106c-0.419-0.133-0.76-0.421-0.961-0.811c-0.202-0.391-0.24-0.837-0.107-1.256
		c0.133-0.418,0.42-0.759,0.81-0.96c0.553-0.285,0.853-0.866,0.807-1.45c-0.001-0.007-0.003-0.014-0.004-0.021
		c-0.008-0.09-0.023-0.18-0.048-0.269c-0.011-0.04-0.032-0.079-0.047-0.119c-0.02-0.054-0.037-0.109-0.064-0.162c0,0,0,0,0-0.001
		c0,0,0-0.001,0-0.001l-2.78-5.372c-0.381-0.735-1.285-1.023-2.021-0.643c-0.806,0.416-1.803,0.101-2.221-0.703
		c-0.417-0.807-0.101-1.802,0.705-2.219c0.735-0.38,1.023-1.286,0.643-2.021c-0.021-0.04-0.048-0.073-0.072-0.11
		c-0.015-0.035-0.024-0.071-0.042-0.105l-2.781-5.372c-0.381-0.737-1.287-1.025-2.021-0.643c0,0,0,0,0,0c0,0,0,0-0.001,0
		c-0.389,0.202-0.834,0.24-1.254,0.106c-0.419-0.133-0.761-0.421-0.961-0.81c-0.417-0.807-0.102-1.802,0.703-2.219
		c0.736-0.381,1.023-1.286,0.643-2.021c-0.008-0.016-0.021-0.029-0.029-0.045c-0.01-0.021-0.015-0.043-0.025-0.064l-2.785-5.372
		c-0.156-0.301-0.402-0.522-0.685-0.658c-0.434-0.27-0.993-0.315-1.482-0.064L6.205,45.921c-2.226,1.156-3.097,3.906-1.944,6.127
		l3.846,7.451c0.256,0.496,0.768,0.81,1.327,0.812c2.76,0.012,5.353,1.091,7.301,3.039c3.569,3.568,4.047,9.161,1.136,13.298
		c-0.322,0.457-0.363,1.056-0.106,1.552l3.816,7.385c0.557,1.082,1.502,1.881,2.663,2.25c0.456,0.146,0.922,0.217,1.387,0.217
		c0.719,0,1.432-0.172,2.088-0.513l66.25-34.386C94.533,52.86,94.829,52.257,94.764,51.659z M26.336,84.876
		c-0.366,0.189-0.787,0.226-1.182,0.1c-0.395-0.126-0.717-0.397-0.907-0.767l-3.416-6.61c3.177-5.24,2.408-11.988-1.976-16.37
		c-2.292-2.293-5.275-3.651-8.483-3.883l-3.447-6.678c-0.393-0.756-0.096-1.691,0.662-2.085l65.008-33.739l1.647,3.176
		c-1.33,1.395-1.716,3.524-0.782,5.33c0.569,1.102,1.535,1.916,2.719,2.292c0.464,0.147,0.939,0.22,1.412,0.22
		c0.229,0,0.456-0.023,0.682-0.057l1.754,3.388c-1.329,1.395-1.715,3.525-0.78,5.332c0.826,1.592,2.453,2.506,4.135,2.506
		c0.226,0,0.452-0.023,0.679-0.056l1.642,3.172c-0.484,0.505-0.864,1.105-1.082,1.792c-0.375,1.182-0.268,2.439,0.301,3.541
		c0.569,1.102,1.535,1.917,2.719,2.292c0.464,0.147,0.939,0.221,1.413,0.221c0.228,0,0.455-0.023,0.681-0.057l1.647,3.179
		L26.336,84.876z"/>
</g>
</svg>
