<svg xmlns="http://www.w3.org/2000/svg" viewBox="0 0 1440 320">
  <path fill="#415aff" fill-opacity="1" d="M0,192L26.7,197.3C53.3,203,107,213,160,213.3C213.3,213,267,203,320,213.3C373.3,224,427,256,480,266.7C533.3,277,587,267,640,250.7C693.3,235,747,213,800,224C853.3,235,907,277,960,293.3C1013.3,309,1067,299,1120,288C1173.3,277,1227,267,1280,224C1333.3,181,1387,107,1413,69.3L1440,32L1440,0L1413.3,0C1386.7,0,1333,0,1280,0C1226.7,0,1173,0,1120,0C1066.7,0,1013,0,960,0C906.7,0,853,0,800,0C746.7,0,693,0,640,0C586.7,0,533,0,480,0C426.7,0,373,0,320,0C266.7,0,213,0,160,0C106.7,0,53,0,27,0L0,0Z"></path>
</svg>