<?xml version="1.0" standalone="no"?><svg xmlns="http://www.w3.org/2000/svg" viewBox="0 0 1440 320"><path fill="#f3f4f5" fill-opacity="0.4" d="M0,32L13.3,74.7C26.7,117,53,203,80,213.3C106.7,224,133,160,160,133.3C186.7,107,213,117,240,101.3C266.7,85,293,43,320,64C346.7,85,373,171,400,208C426.7,245,453,235,480,202.7C506.7,171,533,117,560,128C586.7,139,613,213,640,218.7C666.7,224,693,160,720,128C746.7,96,773,96,800,112C826.7,128,853,160,880,181.3C906.7,203,933,213,960,208C986.7,203,1013,181,1040,170.7C1066.7,160,1093,160,1120,133.3C1146.7,107,1173,53,1200,58.7C1226.7,64,1253,128,1280,144C1306.7,160,1333,128,1360,128C1386.7,128,1413,160,1427,176L1440,192L1440,320L1426.7,320C1413.3,320,1387,320,1360,320C1333.3,320,1307,320,1280,320C1253.3,320,1227,320,1200,320C1173.3,320,1147,320,1120,320C1093.3,320,1067,320,1040,320C1013.3,320,987,320,960,320C933.3,320,907,320,880,320C853.3,320,827,320,800,320C773.3,320,747,320,720,320C693.3,320,667,320,640,320C613.3,320,587,320,560,320C533.3,320,507,320,480,320C453.3,320,427,320,400,320C373.3,320,347,320,320,320C293.3,320,267,320,240,320C213.3,320,187,320,160,320C133.3,320,107,320,80,320C53.3,320,27,320,13,320L0,320Z"></path></svg>