<?xml version="1.0" standalone="no"?><svg xmlns="http://www.w3.org/2000/svg" viewBox="0 0 1440 320"><path fill="#f3f4f5" fill-opacity="0.4" d="M0,160L13.3,154.7C26.7,149,53,139,80,122.7C106.7,107,133,85,160,74.7C186.7,64,213,64,240,53.3C266.7,43,293,21,320,16C346.7,11,373,21,400,48C426.7,75,453,117,480,122.7C506.7,128,533,96,560,80C586.7,64,613,64,640,64C666.7,64,693,64,720,85.3C746.7,107,773,149,800,165.3C826.7,181,853,171,880,144C906.7,117,933,75,960,85.3C986.7,96,1013,160,1040,165.3C1066.7,171,1093,117,1120,85.3C1146.7,53,1173,43,1200,80C1226.7,117,1253,203,1280,218.7C1306.7,235,1333,181,1360,133.3C1386.7,85,1413,43,1427,21.3L1440,0L1440,320L1426.7,320C1413.3,320,1387,320,1360,320C1333.3,320,1307,320,1280,320C1253.3,320,1227,320,1200,320C1173.3,320,1147,320,1120,320C1093.3,320,1067,320,1040,320C1013.3,320,987,320,960,320C933.3,320,907,320,880,320C853.3,320,827,320,800,320C773.3,320,747,320,720,320C693.3,320,667,320,640,320C613.3,320,587,320,560,320C533.3,320,507,320,480,320C453.3,320,427,320,400,320C373.3,320,347,320,320,320C293.3,320,267,320,240,320C213.3,320,187,320,160,320C133.3,320,107,320,80,320C53.3,320,27,320,13,320L0,320Z"></path></svg>