<?xml version="1.0" standalone="no"?><svg xmlns="http://www.w3.org/2000/svg" viewBox="0 0 1440 320"><path fill="#f3f4f5" fill-opacity="0.4" d="M0,96L13.3,101.3C26.7,107,53,117,80,144C106.7,171,133,213,160,197.3C186.7,181,213,107,240,69.3C266.7,32,293,32,320,58.7C346.7,85,373,139,400,170.7C426.7,203,453,213,480,229.3C506.7,245,533,267,560,229.3C586.7,192,613,96,640,90.7C666.7,85,693,171,720,208C746.7,245,773,235,800,240C826.7,245,853,267,880,229.3C906.7,192,933,96,960,96C986.7,96,1013,192,1040,208C1066.7,224,1093,160,1120,144C1146.7,128,1173,160,1200,149.3C1226.7,139,1253,85,1280,96C1306.7,107,1333,181,1360,213.3C1386.7,245,1413,235,1427,229.3L1440,224L1440,320L1426.7,320C1413.3,320,1387,320,1360,320C1333.3,320,1307,320,1280,320C1253.3,320,1227,320,1200,320C1173.3,320,1147,320,1120,320C1093.3,320,1067,320,1040,320C1013.3,320,987,320,960,320C933.3,320,907,320,880,320C853.3,320,827,320,800,320C773.3,320,747,320,720,320C693.3,320,667,320,640,320C613.3,320,587,320,560,320C533.3,320,507,320,480,320C453.3,320,427,320,400,320C373.3,320,347,320,320,320C293.3,320,267,320,240,320C213.3,320,187,320,160,320C133.3,320,107,320,80,320C53.3,320,27,320,13,320L0,320Z"></path></svg>