<?xml version="1.0" standalone="no"?><svg xmlns="http://www.w3.org/2000/svg" viewBox="0 0 1440 320"><path fill="#f3f4f5" fill-opacity="0.4" d="M0,128L13.3,117.3C26.7,107,53,85,80,74.7C106.7,64,133,64,160,101.3C186.7,139,213,213,240,229.3C266.7,245,293,203,320,160C346.7,117,373,75,400,58.7C426.7,43,453,53,480,85.3C506.7,117,533,171,560,197.3C586.7,224,613,224,640,208C666.7,192,693,160,720,144C746.7,128,773,128,800,112C826.7,96,853,64,880,48C906.7,32,933,32,960,42.7C986.7,53,1013,75,1040,69.3C1066.7,64,1093,32,1120,37.3C1146.7,43,1173,85,1200,122.7C1226.7,160,1253,192,1280,181.3C1306.7,171,1333,117,1360,112C1386.7,107,1413,149,1427,170.7L1440,192L1440,320L1426.7,320C1413.3,320,1387,320,1360,320C1333.3,320,1307,320,1280,320C1253.3,320,1227,320,1200,320C1173.3,320,1147,320,1120,320C1093.3,320,1067,320,1040,320C1013.3,320,987,320,960,320C933.3,320,907,320,880,320C853.3,320,827,320,800,320C773.3,320,747,320,720,320C693.3,320,667,320,640,320C613.3,320,587,320,560,320C533.3,320,507,320,480,320C453.3,320,427,320,400,320C373.3,320,347,320,320,320C293.3,320,267,320,240,320C213.3,320,187,320,160,320C133.3,320,107,320,80,320C53.3,320,27,320,13,320L0,320Z"></path></svg>